<?xml version="1.0" encoding="utf-8"?>
<!-- Generator: Adobe Illustrator 16.0.0, SVG Export Plug-In . SVG Version: 6.00 Build 0)  -->
<!DOCTYPE svg PUBLIC "-//W3C//DTD SVG 1.0//EN" "http://www.w3.org/TR/2001/REC-SVG-20010904/DTD/svg10.dtd" [
	<!ENTITY ns_flows "http://ns.adobe.com/Flows/1.0/">
	<!ENTITY ns_extend "http://ns.adobe.com/Extensibility/1.0/">
	<!ENTITY ns_ai "http://ns.adobe.com/AdobeIllustrator/10.0/">
	<!ENTITY ns_graphs "http://ns.adobe.com/Graphs/1.0/">
]>
<svg version="1.0" xmlns:x="&ns_extend;" xmlns:i="&ns_ai;" xmlns:graph="&ns_graphs;"
	 xmlns="http://www.w3.org/2000/svg" xmlns:xlink="http://www.w3.org/1999/xlink" xmlns:a="http://ns.adobe.com/AdobeSVGViewerExtensions/3.0/"
	 x="0px" y="0px" width="1400px" height="980px" viewBox="0 0 1400 980" enable-background="new 0 0 1400 980" xml:space="preserve"
	>
<g id="Background">
	<rect fill-rule="evenodd" clip-rule="evenodd" fill="#F7FBFE" width="1400" height="980"/>
</g>
<g id="Objects">
	<g>
		<g>
			<circle fill-rule="evenodd" clip-rule="evenodd" fill="#8AC8C7" cx="1114.3" cy="697.5" r="187.5"/>
			<path fill="#FEDABE" d="M1057.7,587.2H1171c25,0,45.3,20.3,45.3,45.3v222.3c-29.4,19.1-64.4,30.2-102,30.2s-72.6-11.1-102-30.2
				V632.5C1012.3,607.5,1032.6,587.2,1057.7,587.2z"/>
			<g>
				<path fill="#FEDABE" d="M1163.7,607.3c9.3,7.4,24.6,19.6,33.9,27c9.3,7.4,18.4,3.9,20.2-7.9s4.7-31,6.4-42.8
					c1.8-11.8-5.9-17.8-16.9-13.5c-11.1,4.4-29.2,11.5-40.3,15.8C1155.8,590.3,1154.4,599.9,1163.7,607.3z"/>
			</g>
			<g>
				<path fill="#FABFB0" d="M1186.2,598.5c4.1,3.3,10.8,8.6,15,11.9c4.1,3.3,8.1,1.7,8.9-3.5c0.8-5.2,2.1-13.7,2.8-18.9
					s-2.6-7.9-7.5-6s-12.9,5.1-17.8,7S1182.1,595.2,1186.2,598.5z"/>
			</g>
			<g>
				<path fill="#FEDABE" d="M1065.4,606.8c-9.3,7.4-24.6,19.6-33.9,27s-18.4,3.9-20.1-7.9c-1.8-11.8-4.7-31-6.4-42.8
					c-1.8-11.8,5.9-17.8,16.9-13.5c11.1,4.4,29.2,11.5,40.3,15.8C1073.3,589.7,1074.7,599.4,1065.4,606.8z"/>
			</g>
			<g>
				<path fill="#FABFB0" d="M1042.9,597.9c-4.1,3.3-10.8,8.6-15,11.9c-4.1,3.3-8.1,1.7-8.9-3.5s-2.1-13.7-2.8-18.9s2.6-7.9,7.5-6
					c4.9,1.9,12.9,5.1,17.8,7S1047,594.7,1042.9,597.9z"/>
			</g>
			<g>
				<g>
					<path fill="#4E515A" d="M1111.8,704.7c0,5.2,0,10.4,0,15.6c0,3.2,5,3.2,5,0c0-5.2,0-10.4,0-15.6
						C1116.8,701.5,1111.8,701.5,1111.8,704.7L1111.8,704.7z"/>
				</g>
			</g>
			<g>
				<g>
					<path fill="#4E515A" d="M1106.5,722.8c5.2,0,10.4,0,15.6,0c3.2,0,3.2-5,0-5c-5.2,0-10.4,0-15.6,0
						C1103.3,717.8,1103.3,722.8,1106.5,722.8L1106.5,722.8z"/>
				</g>
			</g>
			<circle fill="#4E515A" cx="1146.8" cy="667.8" r="7.5"/>
			<circle fill="#4E515A" cx="1091.1" cy="667.8" r="7.5"/>
			<g>
				<path fill-rule="evenodd" clip-rule="evenodd" fill="#FFFFFF" d="M1172.3,691.2h44v6.3h-44c-1.7,0-3.2-1.4-3.2-3.2
					C1169.1,692.6,1170.6,691.2,1172.3,691.2z"/>
				<path fill-rule="evenodd" clip-rule="evenodd" fill="#FFFFFF" d="M1216.3,710.8h-34c-1.7,0-3.2-1.4-3.2-3.2s1.4-3.2,3.2-3.2h34
					V710.8z"/>
				<path fill-rule="evenodd" clip-rule="evenodd" fill="#FFFFFF" d="M1216.3,723.4h-24c-1.7,0-3.2-1.4-3.2-3.2
					c0-1.7,1.4-3.2,3.2-3.2h24V723.4z"/>
			</g>
			<g>
				<path fill-rule="evenodd" clip-rule="evenodd" fill="#FFFFFF" d="M1056.3,691.2h-44v6.3h44c1.7,0,3.2-1.4,3.2-3.2
					C1059.5,692.6,1058.1,691.2,1056.3,691.2z"/>
				<path fill-rule="evenodd" clip-rule="evenodd" fill="#FFFFFF" d="M1012.3,710.8h34c1.7,0,3.2-1.4,3.2-3.2s-1.4-3.2-3.2-3.2h-34
					V710.8z"/>
				<path fill-rule="evenodd" clip-rule="evenodd" fill="#FFFFFF" d="M1012.3,723.4h24c1.7,0,3.2-1.4,3.2-3.2c0-1.7-1.4-3.2-3.2-3.2
					h-24V723.4z"/>
			</g>
			<g>
				<g>
					<path fill-rule="evenodd" clip-rule="evenodd" fill="#F2C6A8" d="M1150.8,631.2v-44h-6.3v44c0,1.7,1.4,3.2,3.2,3.2
						C1149.3,634.3,1150.8,632.9,1150.8,631.2z"/>
					<path fill-rule="evenodd" clip-rule="evenodd" fill="#F2C6A8" d="M1131.1,587.2v34c0,1.7,1.4,3.2,3.2,3.2
						c1.7,0,3.2-1.4,3.2-3.2v-34H1131.1z"/>
					<path fill-rule="evenodd" clip-rule="evenodd" fill="#F2C6A8" d="M1118.5,587.2v24c0,1.7,1.4,3.2,3.2,3.2
						c1.7,0,3.2-1.4,3.2-3.2v-24H1118.5z"/>
				</g>
				<g>
					<path fill-rule="evenodd" clip-rule="evenodd" fill="#F2C6A8" d="M1077.9,631.2v-44h6.3v44c0,1.7-1.4,3.2-3.2,3.2
						C1079.3,634.3,1077.9,632.9,1077.9,631.2z"/>
					<path fill-rule="evenodd" clip-rule="evenodd" fill="#F2C6A8" d="M1097.6,587.2v34c0,1.7-1.4,3.2-3.2,3.2
						c-1.7,0-3.2-1.4-3.2-3.2v-34H1097.6z"/>
					<path fill-rule="evenodd" clip-rule="evenodd" fill="#F2C6A8" d="M1110.1,587.2v24c0,1.7-1.4,3.2-3.2,3.2
						c-1.7,0-3.2-1.4-3.2-3.2v-24H1110.1z"/>
				</g>
			</g>
			<ellipse fill="#4E515A" cx="1114.3" cy="702.6" rx="13.5" ry="5.1"/>
			<g>
				<circle fill-rule="evenodd" clip-rule="evenodd" fill="#F2C6A8" cx="1182.5" cy="855.6" r="30.6"/>
				<circle fill-rule="evenodd" clip-rule="evenodd" fill="#F2C6A8" cx="1162.8" cy="877.5" r="14.8"/>
				<circle fill-rule="evenodd" clip-rule="evenodd" fill="#F2C6A8" cx="1182.5" cy="885" r="14.8"/>
				<circle fill-rule="evenodd" clip-rule="evenodd" fill="#F2C6A8" cx="1204" cy="877.5" r="14.8"/>
			</g>
			<g>
				<circle fill-rule="evenodd" clip-rule="evenodd" fill="#F2C6A8" cx="1042.9" cy="864" r="30.6"/>
				<circle fill-rule="evenodd" clip-rule="evenodd" fill="#EFD8C7" cx="1042.9" cy="864" r="17.1"/>
				<circle fill-rule="evenodd" clip-rule="evenodd" fill="#F2C6A8" cx="1066.6" cy="842.1" r="14.8"/>
				<circle fill-rule="evenodd" clip-rule="evenodd" fill="#EFD8C7" cx="1066.6" cy="842.1" r="7.8"/>
				<circle fill-rule="evenodd" clip-rule="evenodd" fill="#F2C6A8" cx="1042.9" cy="830.5" r="14.8"/>
				<circle fill-rule="evenodd" clip-rule="evenodd" fill="#F2C6A8" cx="1017.5" cy="842.1" r="14.8"/>
				<circle fill-rule="evenodd" clip-rule="evenodd" fill="#EFD8C7" cx="1042.9" cy="830.5" r="7.8"/>
				<circle fill-rule="evenodd" clip-rule="evenodd" fill="#EFD8C7" cx="1017.5" cy="842.1" r="7.8"/>
			</g>
		</g>
		<g>
			<g>
				<g>
					<circle fill-rule="evenodd" clip-rule="evenodd" fill="#B4C6AE" cx="285.7" cy="265.4" r="187.5"/>
					<path fill="#EDE1D3" d="M342.3,155.1H229c-25,0-45.3,20.3-45.3,45.3v222.3c29.4,19.1,64.4,30.2,102,30.2s72.6-11.1,102-30.2
						V200.4C387.7,175.4,367.4,155.1,342.3,155.1z"/>
					<g>
						<path fill="#EDE1D3" d="M236.3,175.3c-9.3,7.4-24.6,19.6-33.9,27s-18.4,3.9-20.1-7.9s-4.7-31-6.4-42.8s5.9-17.8,16.9-13.5
							s29.2,11.5,40.3,15.8S245.6,167.9,236.3,175.3z"/>
					</g>
					<g>
						<path fill="#EDCCB1" d="M213.8,166.4c-4.1,3.3-10.8,8.6-15,11.9c-4.1,3.3-8.1,1.7-8.9-3.5s-2.1-13.7-2.8-18.9
							c-0.8-5.2,2.6-7.9,7.5-6c4.9,1.9,12.9,5.1,17.8,7S217.9,163.2,213.8,166.4z"/>
					</g>
					<g>
						<path fill="#EDE1D3" d="M334.6,174.7c9.3,7.4,24.6,19.6,33.9,27s18.4,3.9,20.1-7.9s4.7-31,6.4-42.8s-5.9-17.8-16.9-13.5
							s-29.2,11.5-40.3,15.8S325.3,167.3,334.6,174.7z"/>
					</g>
					<g>
						<path fill="#EDCCB1" d="M357.1,165.9c4.1,3.3,10.8,8.6,15,11.9c4.1,3.3,8.1,1.7,8.9-3.5s2.1-13.7,2.8-18.9
							c0.8-5.2-2.6-7.9-7.5-6s-12.9,5.1-17.8,7S353,162.6,357.1,165.9z"/>
					</g>
					<g>
						<g>
							<path fill="#4E515A" d="M283.2,272.6c0,5.2,0,10.4,0,15.6c0,3.2,5,3.2,5,0c0-5.2,0-10.4,0-15.6
								C288.2,269.4,283.2,269.4,283.2,272.6L283.2,272.6z"/>
						</g>
					</g>
					<g>
						<g>
							<path fill="#4E515A" d="M293.5,285.7c-5.2,0-10.4,0-15.6,0c-3.2,0-3.2,5,0,5c5.2,0,10.4,0,15.6,0
								C296.7,290.7,296.7,285.7,293.5,285.7L293.5,285.7z"/>
						</g>
					</g>
					<circle fill="#4E515A" cx="253.2" cy="235.7" r="7.5"/>
					<circle fill="#4E515A" cx="308.9" cy="235.7" r="7.5"/>
					<g>
						<path fill-rule="evenodd" clip-rule="evenodd" fill="#EDCCB1" d="M227.7,259.1h-44v6.3h44c1.7,0,3.2-1.4,3.2-3.2
							C230.9,260.5,229.4,259.1,227.7,259.1z"/>
						<path fill-rule="evenodd" clip-rule="evenodd" fill="#EDCCB1" d="M183.7,278.8h34c1.7,0,3.2-1.4,3.2-3.2
							c0-1.7-1.4-3.2-3.2-3.2h-34V278.8z"/>
						<path fill-rule="evenodd" clip-rule="evenodd" fill="#EDCCB1" d="M183.7,291.4h24c1.7,0,3.2-1.4,3.2-3.2
							c0-1.7-1.4-3.2-3.2-3.2h-24V291.4z"/>
					</g>
					<g>
						<path fill-rule="evenodd" clip-rule="evenodd" fill="#EDCCB1" d="M343.7,259.1h44v6.3h-44c-1.7,0-3.2-1.4-3.2-3.2
							C340.5,260.5,341.9,259.1,343.7,259.1z"/>
						<path fill-rule="evenodd" clip-rule="evenodd" fill="#EDCCB1" d="M387.7,278.8h-34c-1.7,0-3.2-1.4-3.2-3.2
							c0-1.7,1.4-3.2,3.2-3.2h34V278.8z"/>
						<path fill-rule="evenodd" clip-rule="evenodd" fill="#EDCCB1" d="M387.7,291.4h-24c-1.7,0-3.2-1.4-3.2-3.2
							c0-1.7,1.4-3.2,3.2-3.2h24V291.4z"/>
					</g>
					<g>
						<g>
							<path fill-rule="evenodd" clip-rule="evenodd" fill="#EDCCB1" d="M249.2,199.1v-44h6.3v44c0,1.7-1.4,3.2-3.2,3.2
								C250.7,202.3,249.2,200.9,249.2,199.1z"/>
							<path fill-rule="evenodd" clip-rule="evenodd" fill="#EDCCB1" d="M268.9,155.1v34c0,1.7-1.4,3.2-3.2,3.2
								c-1.7,0-3.2-1.4-3.2-3.2v-34H268.9z"/>
							<path fill-rule="evenodd" clip-rule="evenodd" fill="#EDCCB1" d="M281.5,155.1v24c0,1.7-1.4,3.2-3.2,3.2
								c-1.7,0-3.2-1.4-3.2-3.2v-24H281.5z"/>
						</g>
						<g>
							<path fill-rule="evenodd" clip-rule="evenodd" fill="#EDCCB1" d="M322.1,199.1v-44h-6.3v44c0,1.7,1.4,3.2,3.2,3.2
								C320.7,202.3,322.1,200.9,322.1,199.1z"/>
							<path fill-rule="evenodd" clip-rule="evenodd" fill="#EDCCB1" d="M302.4,155.1v34c0,1.7,1.4,3.2,3.2,3.2
								c1.7,0,3.2-1.4,3.2-3.2v-34H302.4z"/>
							<path fill-rule="evenodd" clip-rule="evenodd" fill="#EDCCB1" d="M289.9,155.1v24c0,1.7,1.4,3.2,3.2,3.2
								c1.7,0,3.2-1.4,3.2-3.2v-24H289.9z"/>
						</g>
					</g>
					<ellipse fill="#4E515A" cx="285.7" cy="270.5" rx="13.5" ry="5.1"/>
					<g>
						<circle fill-rule="evenodd" clip-rule="evenodd" fill="#F4ECE6" cx="217.5" cy="423.6" r="30.6"/>
						<circle fill-rule="evenodd" clip-rule="evenodd" fill="#F4ECE6" cx="237.2" cy="445.5" r="14.8"/>
						<circle fill-rule="evenodd" clip-rule="evenodd" fill="#F4ECE6" cx="217.5" cy="453" r="14.8"/>
						<circle fill-rule="evenodd" clip-rule="evenodd" fill="#F4ECE6" cx="196" cy="445.5" r="14.8"/>
					</g>
					<g>
						<circle fill-rule="evenodd" clip-rule="evenodd" fill="#F4ECE6" cx="357.1" cy="431.9" r="30.6"/>
						<circle fill-rule="evenodd" clip-rule="evenodd" fill="#EDCCB1" cx="357.1" cy="431.9" r="17.1"/>
						<circle fill-rule="evenodd" clip-rule="evenodd" fill="#F4ECE6" cx="333.4" cy="410" r="14.8"/>
						<circle fill-rule="evenodd" clip-rule="evenodd" fill="#EDCCB1" cx="333.4" cy="410" r="7.8"/>
						<circle fill-rule="evenodd" clip-rule="evenodd" fill="#F4ECE6" cx="357.1" cy="398.5" r="14.8"/>
						<circle fill-rule="evenodd" clip-rule="evenodd" fill="#F4ECE6" cx="382.5" cy="410" r="14.8"/>
						<circle fill-rule="evenodd" clip-rule="evenodd" fill="#EDCCB1" cx="357.1" cy="398.5" r="7.8"/>
						<circle fill-rule="evenodd" clip-rule="evenodd" fill="#EDCCB1" cx="382.5" cy="410" r="7.8"/>
					</g>
				</g>
				<g>
					<circle fill-rule="evenodd" clip-rule="evenodd" fill="#B4C6C9" cx="700" cy="265.4" r="187.5"/>
					<path fill="#82878B" d="M756.7,155.1H643.3c-25,0-45.3,20.3-45.3,45.3v222.3c29.4,19.1,64.4,30.2,102,30.2
						c37.6,0,72.6-11.1,102-30.2V200.4C802,175.4,781.7,155.1,756.7,155.1z"/>
					<g>
						<g>
							<path fill="#82878B" d="M665.7,180.6c-11.9,9.4-31.3,24.9-43.1,34.4s-23.4,4.9-25.7-10.1c-2.3-15-5.9-39.5-8.2-54.5
								c-2.3-15,7.5-22.7,21.6-17.2c14.1,5.5,37.2,14.6,51.3,20.2C675.7,158.9,677.5,171.2,665.7,180.6z"/>
						</g>
						<g>
							<path fill="#EDA5B1" d="M637,169.3c-5.2,4.2-13.8,11-19,15.2c-5.2,4.2-10.3,2.2-11.3-4.5c-1-6.6-2.6-17.5-3.6-24.1
								s3.3-10,9.5-7.6s16.4,6.5,22.7,8.9C641.4,159.7,642.2,165.2,637,169.3z"/>
						</g>
					</g>
					<g>
						<g>
							<path fill="#82878B" d="M734.6,181.6c11.9,9.4,31.3,24.9,43.1,34.4s23.4,4.9,25.7-10.1c2.3-15,5.9-39.5,8.2-54.5
								c2.3-15-7.5-22.7-21.6-17.2c-14.1,5.5-37.2,14.6-51.3,20.2C724.6,159.9,722.8,172.2,734.6,181.6z"/>
						</g>
						<g>
							<path fill="#EDA5B1" d="M763.3,170.3c5.2,4.2,13.8,11,19,15.2s10.3,2.2,11.3-4.5s2.6-17.5,3.6-24.1s-3.3-10-9.5-7.6
								s-16.4,6.5-22.7,8.9S758.1,166.2,763.3,170.3z"/>
						</g>
					</g>
					<g>
						<g>
							<path fill="#4E515A" d="M697.5,272.6c0,5.2,0,10.4,0,15.6c0,3.2,5,3.2,5,0c0-5.2,0-10.4,0-15.6
								C702.5,269.4,697.5,269.4,697.5,272.6L697.5,272.6z"/>
						</g>
					</g>
					<g>
						<g>
							<path fill="#4E515A" d="M707.8,285.7c-5.2,0-10.4,0-15.6,0c-3.2,0-3.2,5,0,5c5.2,0,10.4,0,15.6,0
								C711,290.7,711,285.7,707.8,285.7L707.8,285.7z"/>
						</g>
					</g>
					<circle fill="#4E515A" cx="667.6" cy="235.7" r="7.5"/>
					<circle fill="#4E515A" cx="723.2" cy="235.7" r="7.5"/>
					<ellipse fill="#4E515A" cx="700" cy="270.5" rx="13.5" ry="5.1"/>
					<g>
						<circle fill-rule="evenodd" clip-rule="evenodd" fill="#98999B" cx="631.8" cy="423.6" r="30.6"/>
						<circle fill-rule="evenodd" clip-rule="evenodd" fill="#98999B" cx="651.5" cy="445.5" r="14.8"/>
						<circle fill-rule="evenodd" clip-rule="evenodd" fill="#98999B" cx="631.8" cy="453" r="14.8"/>
						<circle fill-rule="evenodd" clip-rule="evenodd" fill="#98999B" cx="610.3" cy="445.5" r="14.8"/>
					</g>
					<g>
						<circle fill-rule="evenodd" clip-rule="evenodd" fill="#98999B" cx="781.2" cy="423.6" r="30.6"/>
						<circle fill-rule="evenodd" clip-rule="evenodd" fill="#98999B" cx="800.9" cy="445.5" r="14.8"/>
						<circle fill-rule="evenodd" clip-rule="evenodd" fill="#98999B" cx="781.2" cy="453" r="14.8"/>
						<circle fill-rule="evenodd" clip-rule="evenodd" fill="#98999B" cx="759.7" cy="445.5" r="14.8"/>
					</g>
					<g>
						<g>
							<path fill="#D5DCE0" d="M593.5,349.9c20.2,12.7,44.5,20.8,67.7,25.7c50.2,10.5,102,2.2,145.4-25.7c9.7-6.3,0.7-21.8-9.1-15.5
								c-40.2,25.9-87.5,33.4-134,23.4c-22-4.8-42.2-11.6-60.9-23.4C592.7,328.1,583.7,343.7,593.5,349.9L593.5,349.9z"/>
						</g>
					</g>
				</g>
				<g>
					<circle fill-rule="evenodd" clip-rule="evenodd" fill="#52728B" cx="1114.3" cy="265.4" r="187.5"/>
					<path fill="#FAC776" d="M1171,155.1h-113.3c-25,0-45.3,20.3-45.3,45.3v222.3c29.4,19.1,64.4,30.2,102,30.2s72.6-11.1,102-30.2
						V200.4C1216.3,175.4,1196,155.1,1171,155.1z"/>
					<g>
						<g>
							<path fill="#FAC776" d="M1098.1,196.9c-14.6,6.4-38.6,16.8-53.2,23.2l-9.2,4c-14.6,6.4-25.1-1.4-23.3-17.2l1.1-10
								c1.8-15.8,4.7-41.8,6.5-57.6l1.1-10c1.8-15.8,13.8-21.1,26.6-11.6l8.1,6c12.8,9.5,33.8,25,46.6,34.5l8.1,6
								c12.8,9.5,11.4,22.4-3.3,28.8L1098.1,196.9z"/>
						</g>
						<g>
							<path fill="#EDAA90" d="M1072.1,172.3c-7.6,3.3-20,8.7-27.6,12s-13-0.7-12.1-8.9s2.5-21.7,3.4-29.9c0.9-8.2,7.1-10.9,13.8-6
								s17.5,13,24.2,17.9S1079.7,169,1072.1,172.3z"/>
						</g>
					</g>
					<g>
						<g>
							<path fill="#FAC776" d="M1130.6,196.9c14.6,6.4,38.6,16.8,53.2,23.2l9.2,4c14.6,6.4,25.1-1.4,23.3-17.2l-1.1-10
								c-1.8-15.8-4.7-41.8-6.5-57.6l-1.1-10c-1.8-15.8-13.8-21.1-26.6-11.6l-8.1,6c-12.8,9.5-33.8,25-46.6,34.5l-8.1,6
								c-12.8,9.5-11.4,22.4,3.3,28.8L1130.6,196.9z"/>
						</g>
						<g>
							<path fill="#EDAA90" d="M1156.6,172.3c7.6,3.3,20,8.7,27.6,12s13-0.7,12.1-8.9s-2.5-21.7-3.4-29.9c-0.9-8.2-7.1-10.9-13.8-6
								s-17.5,13-24.2,17.9S1149,169,1156.6,172.3z"/>
						</g>
					</g>
					<g>
						<g>
							<path fill="#4E515A" d="M1111.8,272.6c0,5.2,0,10.4,0,15.6c0,3.2,5,3.2,5,0c0-5.2,0-10.4,0-15.6
								C1116.8,269.4,1111.8,269.4,1111.8,272.6L1111.8,272.6z"/>
						</g>
					</g>
					<g>
						<g>
							<path fill="#4E515A" d="M1122.1,285.7c-5.2,0-10.4,0-15.6,0c-3.2,0-3.2,5,0,5c5.2,0,10.4,0,15.6,0
								C1125.3,290.7,1125.3,285.7,1122.1,285.7L1122.1,285.7z"/>
						</g>
					</g>
					<circle fill="#4E515A" cx="1081.9" cy="235.7" r="7.5"/>
					<circle fill="#4E515A" cx="1137.5" cy="235.7" r="7.5"/>
					<ellipse fill="#4E515A" cx="1114.3" cy="270.5" rx="13.5" ry="5.1"/>
					<g>
						<circle fill-rule="evenodd" clip-rule="evenodd" fill="#E5B267" cx="1046.1" cy="423.6" r="30.6"/>
						<circle fill-rule="evenodd" clip-rule="evenodd" fill="#E5B267" cx="1065.8" cy="445.5" r="14.8"/>
						<circle fill-rule="evenodd" clip-rule="evenodd" fill="#E5B267" cx="1046.1" cy="453" r="14.8"/>
						<circle fill-rule="evenodd" clip-rule="evenodd" fill="#E5B267" cx="1024.7" cy="445.5" r="14.8"/>
					</g>
					<g>
						<circle fill-rule="evenodd" clip-rule="evenodd" fill="#E5B267" cx="1195.5" cy="423.6" r="30.6"/>
						<circle fill-rule="evenodd" clip-rule="evenodd" fill="#E5B267" cx="1215.2" cy="445.5" r="14.8"/>
						<circle fill-rule="evenodd" clip-rule="evenodd" fill="#E5B267" cx="1195.5" cy="453" r="14.8"/>
						<circle fill-rule="evenodd" clip-rule="evenodd" fill="#E5B267" cx="1174" cy="445.5" r="14.8"/>
					</g>
					<g>
						<g>
							<path fill="#D17171" d="M1007.8,349.9c20.2,12.7,44.5,20.8,67.7,25.7c50.2,10.5,102,2.2,145.4-25.7
								c9.7-6.3,0.7-21.8-9.1-15.5c-40.2,25.9-87.5,33.4-134,23.4c-22-4.8-42.2-11.6-60.9-23.4C1007,328.1,998,343.7,1007.8,349.9
								L1007.8,349.9z"/>
						</g>
					</g>
					<path fill="#FFDEB6" d="M1095.7,155.1c-3.4,4.8-5.5,11-5.5,17.7c0,15.4,10.8,27.9,24.1,27.9s24.1-12.5,24.1-27.9
						c0-6.7-2.1-12.9-5.5-17.7H1095.7z"/>
					<path fill="#FFDEB6" d="M1021,235.7c-3,0-5.9,0.5-8.7,1.3v69.7c2.8,0.9,5.7,1.3,8.7,1.3c17.8,0,32.3-16.2,32.3-36.2
						S1038.9,235.7,1021,235.7z"/>
					<path fill="#FFDEB6" d="M1207.6,308.1c3,0,5.9-0.5,8.7-1.3v-69.7c-2.8-0.9-5.7-1.3-8.7-1.3c-17.8,0-32.3,16.2-32.3,36.2
						S1189.8,308.1,1207.6,308.1z"/>
				</g>
			</g>
			<g>
				<circle fill-rule="evenodd" clip-rule="evenodd" fill="#D5D894" cx="285.7" cy="697.5" r="187.5"/>
				<path fill="#D48E6B" d="M229,587.2h113.3c25,0,45.3,20.3,45.3,45.3v222.3c-29.4,19.1-64.4,30.2-102,30.2s-72.6-11.1-102-30.2
					V632.5C183.7,607.5,204,587.2,229,587.2z"/>
				<g>
					<g>
						<path fill="#D48E6B" d="M301.9,628.9c14.6,6.4,38.6,16.8,53.2,23.2l9.2,4c14.6,6.4,25.1-1.4,23.3-17.2l-1.1-10
							c-1.8-15.8-4.7-41.8-6.5-57.6l-1.1-10c-1.8-15.8-13.8-21.1-26.6-11.6l-8.1,6c-12.8,9.5-33.8,25-46.6,34.5l-8.1,6
							c-12.8,9.5-11.4,22.4,3.3,28.8L301.9,628.9z"/>
					</g>
					<g>
						<path fill="#FABFB0" d="M327.9,604.3c7.6,3.3,20,8.7,27.6,12s13-0.7,12.1-8.9c-0.9-8.2-2.5-21.7-3.4-29.9
							c-0.9-8.2-7.1-10.9-13.8-6s-17.5,13-24.2,17.9C319.5,594.3,320.3,601,327.9,604.3z"/>
					</g>
				</g>
				<g>
					<g>
						<path fill="#D48E6B" d="M269.4,628.9c-14.6,6.4-38.6,16.8-53.2,23.2l-9.2,4c-14.6,6.4-25.1-1.4-23.3-17.2l1.1-10
							c1.8-15.8,4.7-41.8,6.5-57.6l1.1-10c1.8-15.8,13.8-21.1,26.6-11.6l8.1,6c12.8,9.5,33.8,25,46.6,34.5l8.1,6
							c12.8,9.5,11.4,22.4-3.3,28.8L269.4,628.9z"/>
					</g>
					<g>
						<path fill="#FABFB0" d="M243.4,604.3c-7.6,3.3-20,8.7-27.6,12s-13-0.7-12.1-8.9c0.9-8.2,2.5-21.7,3.4-29.9
							c0.9-8.2,7.1-10.9,13.8-6s17.5,13,24.2,17.9C251.8,594.3,251,601,243.4,604.3z"/>
					</g>
				</g>
				<g>
					<g>
						<path fill="#4E515A" d="M283.2,704.7c0,5.2,0,10.4,0,15.6c0,3.2,5,3.2,5,0c0-5.2,0-10.4,0-15.6
							C288.2,701.5,283.2,701.5,283.2,704.7L283.2,704.7z"/>
					</g>
				</g>
				<g>
					<g>
						<path fill="#4E515A" d="M277.9,722.8c5.2,0,10.4,0,15.6,0c3.2,0,3.2-5,0-5c-5.2,0-10.4,0-15.6,0
							C274.7,717.8,274.7,722.8,277.9,722.8L277.9,722.8z"/>
					</g>
				</g>
				<circle fill="#4E515A" cx="318.1" cy="667.8" r="7.5"/>
				<circle fill="#4E515A" cx="262.5" cy="667.8" r="7.5"/>
				<ellipse fill="#4E515A" cx="285.7" cy="702.6" rx="13.5" ry="5.1"/>
				<g>
					<circle fill-rule="evenodd" clip-rule="evenodd" fill="#C47958" cx="353.9" cy="855.6" r="30.6"/>
					<circle fill-rule="evenodd" clip-rule="evenodd" fill="#C47958" cx="334.2" cy="877.5" r="14.8"/>
					<circle fill-rule="evenodd" clip-rule="evenodd" fill="#C47958" cx="353.9" cy="885" r="14.8"/>
					<circle fill-rule="evenodd" clip-rule="evenodd" fill="#C47958" cx="375.3" cy="877.5" r="14.8"/>
				</g>
				<g>
					<circle fill-rule="evenodd" clip-rule="evenodd" fill="#C47958" cx="204.5" cy="855.6" r="30.6"/>
					<circle fill-rule="evenodd" clip-rule="evenodd" fill="#C47958" cx="184.8" cy="877.5" r="14.8"/>
					<circle fill-rule="evenodd" clip-rule="evenodd" fill="#C47958" cx="204.5" cy="885" r="14.8"/>
					<circle fill-rule="evenodd" clip-rule="evenodd" fill="#C47958" cx="226" cy="877.5" r="14.8"/>
				</g>
				<g>
					<path fill="#C47958" d="M310,580.1c-9.2,17.4-7.8,21.7,7.2,23.2c-14.9,13.8-22.3,22.4-31.5,36.5c-9.2-14.1-16.6-22.7-31.5-36.5
						c14.9-1.5,16.3-5.7,7.2-23.2C272.8,594.2,298.5,594.2,310,580.1z"/>
				</g>
				<g>
					<path fill="#C47958" d="M382.5,656.9c-5,21.7-2.9,22.1,11.3,1.7c-12.3,20.9-12.3,69.7,0,90.6c-14.2-20.3-16.3-20-11.3,1.7
						c-19.6-21.7-29.7-33.1-42-47.1C352.8,690,362.9,678.6,382.5,656.9z"/>
				</g>
				<g>
					<path fill="#C47958" d="M188.8,751c5-21.7,2.9-22.1-11.3-1.7c12.3-20.9,12.3-69.7,0-90.6c14.2,20.3,16.3,20,11.3-1.7
						c19.6,21.7,29.7,33.1,42,47.1C218.5,718,208.4,729.3,188.8,751z"/>
				</g>
			</g>
			<g>
				<circle fill-rule="evenodd" clip-rule="evenodd" fill="#F0BCA5" cx="700" cy="697.5" r="187.5"/>
				<path fill="#FFFFFF" d="M643.3,587.2h113.3c25,0,45.3,20.3,45.3,45.3v222.3c-29.4,19.1-64.4,30.2-102,30.2
					c-37.6,0-72.6-11.1-102-30.2V632.5C598,607.5,618.3,587.2,643.3,587.2z"/>
				<g>
					<g>
						<path fill="#FFFFFF" d="M734.3,612.6c11.9,9.4,31.3,24.9,43.1,34.4c11.9,9.4,23.4,4.9,25.7-10.1c2.3-15,5.9-39.5,8.2-54.5
							c2.3-15-7.5-22.7-21.6-17.2s-37.2,14.6-51.3,20.2S722.5,603.2,734.3,612.6z"/>
					</g>
					<g>
						<path fill="#EDA5B1" d="M763,601.4c5.2,4.2,13.8,11,19,15.2s10.3,2.2,11.3-4.5s2.6-17.5,3.6-24.1s-3.3-10-9.5-7.6
							s-16.4,6.5-22.7,8.9S757.8,597.2,763,601.4z"/>
					</g>
				</g>
				<g>
					<g>
						<path fill="#FFFFFF" d="M665.4,613.6c-11.9,9.4-31.3,24.9-43.1,34.4c-11.9,9.4-23.4,4.9-25.7-10.1c-2.3-15-5.9-39.5-8.2-54.5
							c-2.3-15,7.5-22.7,21.6-17.2s37.2,14.6,51.3,20.2C675.4,591.9,677.2,604.2,665.4,613.6z"/>
					</g>
					<g>
						<path fill="#EDA5B1" d="M636.7,602.4c-5.2,4.2-13.8,11-19,15.2s-10.3,2.2-11.3-4.5s-2.6-17.5-3.6-24.1s3.3-10,9.5-7.6
							s16.4,6.5,22.7,8.9S641.9,598.2,636.7,602.4z"/>
					</g>
				</g>
				<g>
					<g>
						<path fill="#4E515A" d="M697.5,704.7c0,5.2,0,10.4,0,15.6c0,3.2,5,3.2,5,0c0-5.2,0-10.4,0-15.6
							C702.5,701.5,697.5,701.5,697.5,704.7L697.5,704.7z"/>
					</g>
				</g>
				<g>
					<g>
						<path fill="#4E515A" d="M692.2,722.8c5.2,0,10.4,0,15.6,0c3.2,0,3.2-5,0-5c-5.2,0-10.4,0-15.6,0
							C689,717.8,689,722.8,692.2,722.8L692.2,722.8z"/>
					</g>
				</g>
				<circle fill="#4E515A" cx="732.4" cy="667.8" r="7.5"/>
				<circle fill="#4E515A" cx="676.8" cy="667.8" r="7.5"/>
				<ellipse fill="#4E515A" cx="700" cy="702.6" rx="13.5" ry="5.1"/>
				<g>
					<g>
						<path fill="#E0B3C7" d="M797.5,766.4c-18.7,11.8-38.9,18.5-60.9,23.4c-46.4,10.3-94,2.4-134-23.4c-9.8-6.3-18.8,9.3-9.1,15.5
							c43.5,28,95,36,145.4,25.7c23.2-4.7,47.5-13,67.7-25.7C816.3,775.8,807.3,760.2,797.5,766.4L797.5,766.4z"/>
					</g>
				</g>
				<g>
					<circle fill-rule="evenodd" clip-rule="evenodd" fill="#DEE0E0" cx="624.4" cy="871.5" r="30.6"/>
					<circle fill-rule="evenodd" clip-rule="evenodd" fill="#EDA5B1" cx="624.4" cy="871.5" r="17.1"/>
					<circle fill-rule="evenodd" clip-rule="evenodd" fill="#DEE0E0" cx="648.1" cy="849.6" r="14.8"/>
					<circle fill-rule="evenodd" clip-rule="evenodd" fill="#EDA5B1" cx="648.1" cy="849.6" r="7.8"/>
					<circle fill-rule="evenodd" clip-rule="evenodd" fill="#DEE0E0" cx="624.4" cy="838.1" r="14.8"/>
					<circle fill-rule="evenodd" clip-rule="evenodd" fill="#DEE0E0" cx="599" cy="849.6" r="14.8"/>
					<circle fill-rule="evenodd" clip-rule="evenodd" fill="#EDA5B1" cx="624.4" cy="838.1" r="7.8"/>
					<circle fill-rule="evenodd" clip-rule="evenodd" fill="#EDA5B1" cx="599" cy="849.6" r="7.8"/>
				</g>
				<g>
					<circle fill-rule="evenodd" clip-rule="evenodd" fill="#DEE0E0" cx="777" cy="871.5" r="30.6"/>
					<circle fill-rule="evenodd" clip-rule="evenodd" fill="#EDA5B1" cx="777" cy="871.5" r="17.1"/>
					<circle fill-rule="evenodd" clip-rule="evenodd" fill="#DEE0E0" cx="800.7" cy="849.6" r="14.8"/>
					<circle fill-rule="evenodd" clip-rule="evenodd" fill="#EDA5B1" cx="800.7" cy="849.6" r="7.8"/>
					<circle fill-rule="evenodd" clip-rule="evenodd" fill="#DEE0E0" cx="777" cy="838.1" r="14.8"/>
					<circle fill-rule="evenodd" clip-rule="evenodd" fill="#DEE0E0" cx="751.6" cy="849.6" r="14.8"/>
					<circle fill-rule="evenodd" clip-rule="evenodd" fill="#EDA5B1" cx="777" cy="838.1" r="7.8"/>
					<circle fill-rule="evenodd" clip-rule="evenodd" fill="#EDA5B1" cx="751.6" cy="849.6" r="7.8"/>
				</g>
			</g>
		</g>
	</g>
</g>
</svg>
